<svg xmlns="http://www.w3.org/2000/svg" xmlns:xlink="http://www.w3.org/1999/xlink" width="500" zoomAndPan="magnify" viewBox="0 0 375 374.999991" height="500" preserveAspectRatio="xMidYMid meet" version="1.0"><defs><filter x="0%" y="0%" width="100%" height="100%" id="2bc3c6ba87"><feColorMatrix values="0 0 0 0 1 0 0 0 0 1 0 0 0 0 1 0 0 0 1 0" color-interpolation-filters="sRGB"/></filter><mask id="a1109e7a5d"><g filter="url(#2bc3c6ba87)"><rect x="-37.5" width="450" fill="#000000" y="-37.499999" height="449.999989" fill-opacity="0.87"/></g></mask><clipPath id="09e29036b3"><path d="M 8.046875 5 L 328.78125 5 L 328.78125 364 L 8.046875 364 Z M 8.046875 5 " clip-rule="nonzero"/></clipPath><clipPath id="6aba7c524e"><rect x="0" width="338" y="0" height="368"/></clipPath><clipPath id="b9459d256e"><path d="M 37 4 L 357.429688 4 L 357.429688 363 L 37 363 Z M 37 4 " clip-rule="nonzero"/></clipPath><clipPath id="a031383acf"><path d="M 122.703125 154 L 272 154 L 272 264 L 122.703125 264 Z M 122.703125 154 " clip-rule="nonzero"/></clipPath></defs><g mask="url(#a1109e7a5d)"><g transform="matrix(1, 0, 0, 1, 9, 7)"><g clip-path="url(#6aba7c524e)"><g clip-path="url(#09e29036b3)"><path fill="#6844ac" d="M 328.933594 113.832031 L 328.933594 254.855469 C 328.933594 256.519531 328.820312 258.175781 328.605469 259.824219 C 328.386719 261.472656 328.0625 263.101562 327.632812 264.707031 C 327.199219 266.316406 326.667969 267.886719 326.035156 269.425781 C 325.398438 270.964844 324.667969 272.453125 323.835938 273.894531 C 323.007812 275.335938 322.089844 276.71875 321.082031 278.042969 C 320.070312 279.363281 318.980469 280.617188 317.808594 281.796875 C 316.636719 282.976562 315.394531 284.078125 314.078125 285.09375 C 312.761719 286.113281 311.386719 287.042969 309.949219 287.882812 L 187.847656 358.355469 C 186.402344 359.191406 184.90625 359.925781 183.359375 360.5625 C 181.816406 361.199219 180.238281 361.734375 178.625 362.164062 C 177.007812 362.597656 175.375 362.921875 173.71875 363.136719 C 172.0625 363.355469 170.398438 363.464844 168.726562 363.464844 C 167.054688 363.464844 165.394531 363.355469 163.738281 363.136719 C 162.082031 362.921875 160.445312 362.597656 158.832031 362.164062 C 157.21875 361.734375 155.636719 361.199219 154.09375 360.5625 C 152.550781 359.925781 151.054688 359.191406 149.605469 358.355469 L 27.566406 287.882812 C 26.117188 287.050781 24.730469 286.132812 23.402344 285.121094 C 22.074219 284.105469 20.820312 283.011719 19.636719 281.835938 C 18.453125 280.660156 17.355469 279.410156 16.335938 278.089844 C 15.316406 276.765625 14.386719 275.382812 13.550781 273.941406 C 12.710938 272.496094 11.972656 271.003906 11.332031 269.464844 C 10.6875 267.925781 10.148438 266.347656 9.714844 264.738281 C 9.28125 263.128906 8.953125 261.496094 8.730469 259.839844 C 8.511719 258.1875 8.398438 256.523438 8.398438 254.855469 L 8.398438 113.832031 C 8.398438 112.160156 8.507812 110.5 8.730469 108.84375 C 8.949219 107.1875 9.277344 105.554688 9.710938 103.945312 C 10.144531 102.332031 10.683594 100.753906 11.324219 99.214844 C 11.964844 97.671875 12.707031 96.179688 13.542969 94.734375 C 14.382812 93.292969 15.308594 91.910156 16.328125 90.585938 C 17.347656 89.265625 18.449219 88.015625 19.632812 86.835938 C 20.816406 85.660156 22.074219 84.566406 23.402344 83.550781 C 24.726562 82.539062 26.117188 81.617188 27.566406 80.789062 L 149.652344 10.253906 C 151.101562 9.425781 152.597656 8.695312 154.144531 8.058594 C 155.6875 7.425781 157.265625 6.894531 158.878906 6.464844 C 160.496094 6.039062 162.128906 5.714844 163.785156 5.5 C 165.441406 5.28125 167.101562 5.175781 168.773438 5.175781 C 170.441406 5.175781 172.105469 5.28125 173.761719 5.5 C 175.417969 5.714844 177.050781 6.039062 178.664062 6.464844 C 180.277344 6.894531 181.859375 7.425781 183.402344 8.058594 C 184.949219 8.695312 186.445312 9.425781 187.894531 10.253906 L 309.996094 80.820312 C 311.433594 81.660156 312.804688 82.585938 314.121094 83.605469 C 315.433594 84.625 316.675781 85.722656 317.847656 86.902344 C 319.015625 88.082031 320.105469 89.335938 321.113281 90.65625 C 322.121094 91.980469 323.035156 93.359375 323.863281 94.800781 C 324.691406 96.242188 325.421875 97.734375 326.054688 99.269531 C 326.6875 100.808594 327.21875 102.378906 327.644531 103.984375 C 328.074219 105.589844 328.394531 107.21875 328.609375 108.867188 C 328.828125 110.515625 328.933594 112.167969 328.933594 113.832031 Z M 328.933594 113.832031 " fill-opacity="1" fill-rule="nonzero"/></g></g></g></g><g clip-path="url(#b9459d256e)"><path fill="#6844ac" d="M 357.582031 113.171875 L 357.582031 254.199219 C 357.582031 255.863281 357.472656 257.519531 357.253906 259.167969 C 357.035156 260.816406 356.710938 262.445312 356.28125 264.050781 C 355.851562 265.660156 355.316406 267.230469 354.683594 268.769531 C 354.046875 270.304688 353.316406 271.796875 352.488281 273.238281 C 351.65625 274.679688 350.738281 276.0625 349.730469 277.386719 C 348.71875 278.707031 347.628906 279.960938 346.457031 281.140625 C 345.285156 282.320312 344.042969 283.417969 342.726562 284.4375 C 341.410156 285.457031 340.035156 286.386719 338.601562 287.226562 L 216.496094 357.699219 C 215.050781 358.53125 213.554688 359.269531 212.007812 359.90625 C 210.464844 360.542969 208.886719 361.078125 207.273438 361.507812 C 205.65625 361.9375 204.023438 362.261719 202.367188 362.480469 C 200.710938 362.699219 199.046875 362.804688 197.375 362.804688 C 195.707031 362.804688 194.042969 362.699219 192.386719 362.480469 C 190.730469 362.261719 189.09375 361.9375 187.480469 361.507812 C 185.867188 361.078125 184.289062 360.542969 182.742188 359.90625 C 181.199219 359.269531 179.703125 358.53125 178.253906 357.699219 L 56.214844 287.226562 C 54.765625 286.394531 53.378906 285.472656 52.050781 284.460938 C 50.726562 283.449219 49.46875 282.355469 48.285156 281.179688 C 47.105469 280 46.003906 278.753906 44.984375 277.429688 C 43.964844 276.109375 43.035156 274.726562 42.199219 273.285156 C 41.359375 271.839844 40.621094 270.347656 39.980469 268.808594 C 39.335938 267.269531 38.800781 265.691406 38.363281 264.082031 C 37.929688 262.46875 37.601562 260.835938 37.378906 259.183594 C 37.160156 257.527344 37.046875 255.867188 37.046875 254.199219 L 37.046875 113.171875 C 37.046875 111.503906 37.160156 109.84375 37.378906 108.1875 C 37.597656 106.53125 37.925781 104.898438 38.359375 103.285156 C 38.792969 101.675781 39.332031 100.097656 39.972656 98.554688 C 40.613281 97.015625 41.355469 95.523438 42.191406 94.078125 C 43.03125 92.632812 43.957031 91.25 44.976562 89.929688 C 45.996094 88.605469 47.097656 87.355469 48.28125 86.179688 C 49.464844 85.003906 50.722656 83.90625 52.050781 82.894531 C 53.378906 81.882812 54.765625 80.960938 56.214844 80.132812 L 178.300781 9.597656 C 179.75 8.765625 181.246094 8.035156 182.792969 7.402344 C 184.335938 6.769531 185.917969 6.238281 187.53125 5.808594 C 189.144531 5.378906 190.777344 5.058594 192.433594 4.839844 C 194.089844 4.625 195.753906 4.515625 197.421875 4.515625 C 199.089844 4.515625 200.753906 4.625 202.410156 4.839844 C 204.066406 5.058594 205.699219 5.378906 207.3125 5.808594 C 208.929688 6.238281 210.507812 6.769531 212.050781 7.402344 C 213.597656 8.035156 215.09375 8.765625 216.542969 9.597656 L 338.644531 80.164062 C 340.082031 81 341.453125 81.929688 342.769531 82.949219 C 344.082031 83.964844 345.324219 85.066406 346.496094 86.246094 C 347.664062 87.425781 348.753906 88.675781 349.761719 90 C 350.769531 91.320312 351.6875 92.703125 352.511719 94.144531 C 353.339844 95.585938 354.070312 97.074219 354.703125 98.613281 C 355.335938 100.148438 355.867188 101.722656 356.292969 103.328125 C 356.722656 104.933594 357.042969 106.558594 357.261719 108.207031 C 357.476562 109.855469 357.582031 111.511719 357.582031 113.171875 Z M 357.582031 113.171875 " fill-opacity="1" fill-rule="nonzero"/></g><g clip-path="url(#a031383acf)"><path fill="#ffffff" d="M 139.890625 154.738281 C 139.828125 181.40625 139.847656 208.070312 139.847656 234.738281 L 139.847656 240.265625 C 158.988281 221.09375 177.8125 202.242188 197.066406 182.957031 C 216.628906 202.460938 235.453125 221.25 254.734375 240.484375 L 254.734375 236.757812 C 254.746094 209.304688 254.777344 181.839844 254.703125 154.386719 L 271.765625 154.386719 C 271.710938 168.445312 271.722656 182.511719 271.722656 196.578125 C 271.722656 218.929688 271.6875 241.28125 271.773438 263.628906 L 254.214844 263.628906 L 197.152344 206.753906 L 140.886719 263.992188 L 122.90625 263.992188 C 122.894531 263.390625 122.886719 262.789062 122.886719 262.191406 C 122.886719 226.371094 122.894531 190.554688 122.84375 154.734375 L 139.890625 154.734375 Z M 139.890625 154.738281 " fill-opacity="1" fill-rule="nonzero"/></g><path fill="#ffffff" d="M 241.960938 151.144531 C 241.960938 130.726562 226.21875 111.996094 206.078125 108.429688 C 177.21875 103.328125 152.277344 124.234375 152.332031 153.523438 C 152.363281 171.171875 152.472656 188.820312 152.554688 206.46875 C 152.554688 207.480469 152.667969 208.492188 152.753906 209.972656 C 153.675781 209.210938 154.226562 208.820312 154.703125 208.34375 C 159.53125 203.511719 164.367188 198.675781 169.339844 193.691406 L 169.339844 168.613281 C 169.332031 168.609375 169.324219 168.601562 169.3125 168.597656 C 169.3125 162.820312 169.113281 157.039062 169.359375 151.28125 C 169.683594 143.757812 172.625 137.246094 178.214844 132.152344 C 187.046875 124.105469 197.355469 122.210938 208.21875 126.824219 C 219.3125 131.535156 225.082031 140.527344 225.273438 152.652344 C 225.460938 164.648438 225.285156 176.652344 225.363281 188.652344 L 241.976562 205.035156 C 241.972656 187.070312 241.960938 169.109375 241.960938 151.144531 Z M 241.960938 151.144531 " fill-opacity="1" fill-rule="nonzero"/></svg>